<?xml version="1.0" ?><!DOCTYPE svg  PUBLIC '-//W3C//DTD SVG 1.0//EN'  'http://www.w3.org/TR/2001/REC-SVG-20010904/DTD/svg10.dtd'><svg enable-background="new 0 0 500 500" height="500px" id="Layer_1" version="1.0" viewBox="0 0 500 500" width="500px" xml:space="preserve" xmlns="http://www.w3.org/2000/svg" xmlns:xlink="http://www.w3.org/1999/xlink"><g><circle clip-rule="evenodd" cx="343.663" cy="152.739" fill="#333333" fill-rule="evenodd" r="37.325"/><path clip-rule="evenodd" d="M326.878,199.718l16.323,58.921l16.529-59.666   c-1.348-0.443-5.477-2.253-16.446-2.253S327.308,199.915,326.878,199.718z M345.229,205.173c1.65-1.588,4.785-2.685,6.714-2.685   c2.709,0,1.999,2.158,1.999,4.818c0,2.659,0.71,4.817-1.999,4.817c-2.021,0-5.37-1.201-6.943-2.914   c-0.306,0.327-0.678,0.524-1.083,0.524c-0.485,0-0.924-0.279-1.252-0.726c-1.487,1.82-5.013,3.115-7.11,3.115   c-2.71,0-1.999-2.158-1.999-4.817c0-2.661-0.711-4.818,1.999-4.818c2.014,0,5.347,1.193,6.928,2.897   c0.338-0.618,0.851-1.021,1.435-1.021C344.432,204.364,344.896,204.675,345.229,205.173z" fill="#333333" fill-rule="evenodd"/><circle clip-rule="evenodd" cx="201.203" cy="142.175" fill="#333333" fill-rule="evenodd" r="3.283"/><path clip-rule="evenodd" d="M428.613,306.813c-3.162-47.113-21.891-73.964-37.044-88.194   c-7.749-7.276-15.337-12.097-21.426-15.222l-11.59,18.543l5.991,7.325l-21.316,29.474l0.034,0.122l-0.062-0.084l-0.061,0.084   l0.034-0.122l-21.318-29.474l5.992-7.325l-13.136-21.016c-2.194,1.575-3.888,3.88-4.661,6.688   c-0.136,0.491-13.646,48.013-52.872,64.865c-7.596-2.581-23.113-10.923-38.285-37.608c12.459-1.52,24.799-4.195,36.288-8.485   l5.995-2.239l-44.981-74.973c-0.577-4.552-1.976-8.847-4.04-12.735c-0.233,1.633-1.673,3.098-3.309,4.735   c-0.397,0.396-0.858,0.705-1.349,0.953c0.491,0.25,0.952,0.558,1.348,0.955c2.817,2.817,5.891,4.311,1.541,8.661   c-4.352,4.352-5.846,1.278-8.663-1.54c-0.397-0.396-0.705-0.857-0.954-1.349c-0.249,0.491-0.557,0.952-0.954,1.349   c-2.817,2.817-5.077,5.125-8.662,1.54c-3.585-3.584-1.277-5.845,1.541-8.662c0.396-0.396,0.856-0.705,1.348-0.955   c-0.492-0.248-0.952-0.557-1.349-0.953c-2.816-2.818-5.878-4.324-1.54-8.662c4.338-4.338,5.844-1.277,8.662,1.54   c0.397,0.397,0.705,0.858,0.954,1.349c0.25-0.491,0.557-0.952,0.954-1.349c2.388-2.388,4.413-4.361,7.129-2.756   c-6.816-8.935-17.565-14.707-29.673-14.707c-19.252,0-35.095,14.577-37.104,33.295l-38.953,74.973l6.447,1.69   c1.069,0.28,9.588,2.473,22.601,4.731c-7.922,9.892-15.179,19.221-16.535,20.967l-39.93,45.644   c-4.453,5.09-3.936,12.826,1.154,17.278c2.322,2.031,5.196,3.028,8.057,3.027c3.409,0,6.8-1.415,9.221-4.182l39.583-34.962   L102.938,438h40.383l-0.539,42.696c-0.089,6.762,5,12.981,12.247,12.981c7.247,0,12.152-6.325,12.24-13.033L170.272,438h17.873   l2.805,42.696c0.031,6.743,5.32,12.981,12.244,12.981s12.276-6.271,12.245-13.033L215.242,438h42.547L224.76,281.058   c2.426,2.08,4.905,4.106,7.442,5.853c15.343,10.555,27.337,11.142,29.466,11.142c0,0,8.195,0.005,11.463-6.08   c15.933-8.243,28.097-20.096,37.183-32.103c0.061,10.952,0.184,24.22,0.417,38.688c-0.021,0.254-0.048,0.508-0.053,0.765   l-3.415,181.581c-0.129,6.762,4.149,12.879,12.246,12.879c8.098,0,12.11-6.195,12.238-12.877l8.314-107.91   c1.513,0.213,3.055,0.328,4.624,0.328c0.341,0,0.687,0.053,1.03,0.042c0.48-0.015,0.958-0.045,1.433-0.08l8.284,107.62   c0.112,6.692,5.688,12.878,12.448,12.878s12.149-6.116,12.036-12.878l-2.294-138.046c0.082-1.132,0.107-2.279,0.072-3.439   c-0.111-3.629-0.213-7.147-0.308-10.575l-0.407-24.273c-0.012-0.691-0.094-1.364-0.215-2.022   c-0.451-23.259-0.505-40.3-0.495-51.923c12.484,12.424,25.449,21.192,27.907,57.83c0.435,6.467,5.816,11.425,12.205,11.425   c0.275,0,0.553-0.011,0.833-0.029C423.964,319.397,429.065,313.562,428.613,306.813z M118.807,217.768l25.83-49.716   c5.573,13.602,18.937,23.187,34.545,23.187c16.137,0,29.88-10.242,35.089-24.579l31.098,51.834   c-10.125,3.167-20.909,5.121-31.788,6.199c-2.158-4.491-4.29-9.384-6.369-14.736c-1.932-4.976-12.006-11.443-29.791-11.443   c-17.785,0-23.021,6.171-28.775,12.79c-2.374,2.731-5.295,6.213-8.698,10.365C130.984,220.284,123.66,218.823,118.807,217.768z    M244.286,426H116.441l30.491-162.355c0.165-9.906,4.99-17.959,14.524-17.959c8.264,0,15.169,5.954,16.974,14.004   c1.804-8.05,8.71-14.079,16.974-14.079c8.944,0,14.364,7.181,15.379,16.23L244.286,426z" fill="#333333" fill-rule="evenodd"/><path clip-rule="evenodd" d="M234.083,19.47c1.975-1.733,4.621-3.228,7.693-4.2   c2.224-0.705,4.423-1.055,6.459-1.09c-0.039-0.144-0.08-0.288-0.125-0.432c-1.436-4.532-5.839-7.179-9.834-5.914   c-3.995,1.266-6.07,5.965-4.635,10.498C233.766,18.727,233.916,19.105,234.083,19.47z" fill="#333333" fill-rule="evenodd"/><path clip-rule="evenodd" d="M274.923,82.61c4.71,0,8.53-3.751,8.53-8.377   c0-1.362-0.333-2.647-0.92-3.783c-4.401,0.561-9.749,1.668-16.138,3.529c-0.004,0.084-0.007,0.169-0.007,0.254   C266.389,78.858,270.209,82.61,274.923,82.61z" fill="#333333" fill-rule="evenodd"/><path clip-rule="evenodd" d="M229.157,71.994c1.715,7.504-0.181,10.261-2.317,15.047   c-2.134,4.79-9.417,22.433,32.62,14.562c42.615-7.98,55.541-37.411,40.822-41.685c-14.719-4.275-19.896-22.138-24.33-27.774   c-6.493-12.111-21-17.806-33.951-12.779c-12.43,4.824-19.254,17.903-16.798,30.724C225.648,58.287,227.922,66.59,229.157,71.994z    M261.724,70.818c18.419-6.72,35.198-7.092,37.481-0.833c2.283,6.26-10.795,16.781-29.211,23.5   c-18.417,6.719-35.197,7.091-37.481,0.833C230.229,88.058,243.307,77.536,261.724,70.818z" fill="#333333" fill-rule="evenodd"/><rect clip-rule="evenodd" fill="#333333" fill-rule="evenodd" height="14.907" transform="matrix(0.5508 0.8347 -0.8347 0.5508 144.5577 -132.8079)" width="14.907" x="188.202" y="60.435"/><rect clip-rule="evenodd" fill="#333333" fill-rule="evenodd" height="14.906" transform="matrix(0.5508 0.8346 -0.8346 0.5508 273.0151 -290.5866)" width="14.907" x="399.02" y="100.895"/><rect clip-rule="evenodd" fill="#333333" fill-rule="evenodd" height="14.907" transform="matrix(-0.8347 0.5508 -0.5508 -0.8347 661.2454 -15.8834)" width="14.907" x="325.553" y="83.859"/><rect clip-rule="evenodd" fill="#333333" fill-rule="evenodd" height="14.907" transform="matrix(0.5508 0.8346 -0.8346 0.5508 108.9448 -119.8815)" width="14.907" x="158.39" y="33.817"/><rect clip-rule="evenodd" fill="#333333" fill-rule="evenodd" height="14.907" transform="matrix(0.0479 0.9989 -0.9989 0.0479 195.1988 -73.2648)" width="14.906" x="128.577" y="58.305"/><rect clip-rule="evenodd" fill="#333333" fill-rule="evenodd" height="14.907" transform="matrix(0.0479 0.9989 -0.9989 0.0479 417.5565 -291.6334)" width="14.906" x="354.301" y="65.758"/><rect clip-rule="evenodd" fill="#333333" fill-rule="evenodd" height="14.907" transform="matrix(0.048 0.9988 -0.9988 0.048 349.1356 -283.7606)" width="14.906" x="315.97" y="33.816"/><rect clip-rule="evenodd" fill="#333333" fill-rule="evenodd" height="14.907" transform="matrix(0.0479 0.9989 -0.9989 0.0479 238.9759 -68.0755)" width="14.906" x="147.742" y="83.859"/><rect clip-rule="evenodd" fill="#333333" fill-rule="evenodd" height="14.907" transform="matrix(0.0479 0.9989 -0.9989 0.0479 216.7996 4.1598)" width="14.906" x="98.765" y="108.348"/></g></svg>