<?xml version="1.0" ?><!DOCTYPE svg  PUBLIC '-//W3C//DTD SVG 1.1//EN'  'http://www.w3.org/Graphics/SVG/1.1/DTD/svg11.dtd'><svg enable-background="new 0 0 128 128" height="128px" id="Layer_1" version="1.1" viewBox="0 0 128 128" width="128px" xml:space="preserve" xmlns="http://www.w3.org/2000/svg" xmlns:xlink="http://www.w3.org/1999/xlink"><path d="M110,86h-5.082c0.684-1.179,1.082-2.542,1.082-4V60c0-4.411-3.589-8-8-8h-5.082C93.602,50.822,94,49.458,94,48V30  c0-4.411-3.589-8-8-8H70.22c5.415-4.409,8.165-8.828,8.165-13.182C78.385,3.956,74.429,0,69.566,0C67.602,0,65.632,0.826,64,2.28  C62.37,0.826,60.4,0,58.435,0c-4.863,0-8.82,3.956-8.82,8.818c0,4.354,2.75,8.773,8.167,13.182H42c-4.411,0-8,3.589-8,8v18  c0,1.458,0.398,2.822,1.083,4H30c-4.411,0-8,3.589-8,8v22c0,1.458,0.398,2.821,1.083,4H18c-4.411,0-8,3.589-8,8v26  c0,4.411,3.589,8,8,8h92c4.411,0,8-3.589,8-8V94C118,89.589,114.411,86,110,86z M53.615,8.818c0-2.657,2.162-4.818,4.82-4.818  c1.633,0,3.103,1.253,3.934,2.426C62.744,6.955,63.352,7.27,64,7.27s1.256-0.314,1.631-0.843C66.464,5.253,67.934,4,69.566,4  c2.657,0,4.818,2.161,4.818,4.818c0,3.856-3.584,8.267-10.385,12.796C57.199,17.084,53.615,12.674,53.615,8.818z M42,26h44  c2.206,0,4,1.794,4,4v1.728C89.729,32.611,88.321,36,82.666,36c-6.13,0-7.272-3.99-7.377-4.421c-0.232-1.081-1.3-1.769-2.376-1.534  c-0.769,0.166-1.331,0.755-1.512,1.469c-0.006,0.024-0.017,0.039-0.022,0.065C71.369,31.623,70.352,36,64,36  c-6.13,0-7.274-3.99-7.379-4.421c-0.007-0.033-0.02-0.053-0.028-0.083c-0.186-0.705-0.744-1.286-1.505-1.45  c-1.081-0.235-2.144,0.454-2.376,1.534C52.702,31.623,51.684,36,45.332,36c-5.671,0-7.071-3.413-7.332-4.264V30  C38,27.794,39.794,26,42,26z M38,48V37.927C39.75,39.128,42.139,40,45.332,40c4.645,0,7.599-1.835,9.334-3.862  C56.401,38.165,59.354,40,64,40c4.645,0,7.598-1.835,9.333-3.861C75.067,38.165,78.021,40,82.666,40  c3.194,0,5.584-0.872,7.334-2.073V48c0,2.206-1.794,4-4,4H42C39.794,52,38,50.206,38,48z M30,56h68c2.206,0,4,1.794,4,4v2.769  C101.772,63.65,100.33,68,93.999,68c-6.676,0-7.92-4.852-8.036-5.388c0-0.002-0.001-0.002-0.001-0.004  c-0.154-0.769-0.755-1.408-1.572-1.57c-1.088-0.215-2.136,0.49-2.351,1.574C81.995,62.832,80.894,68,74,68  c-6.677,0-7.922-4.852-8.038-5.388c-0.001-0.002-0.001-0.004-0.002-0.007c-0.005-0.021-0.014-0.041-0.019-0.062  c-0.025-0.109-0.054-0.209-0.09-0.29c-0.243-0.595-0.77-1.062-1.448-1.203c-1.076-0.221-2.13,0.472-2.363,1.543  C61.921,63.147,60.675,68,53.999,68c-6.675,0-7.92-4.853-8.037-5.389c0-0.002-0.001-0.003-0.001-0.005  c-0.154-0.759-0.748-1.388-1.556-1.556c-1.077-0.221-2.13,0.472-2.363,1.543C41.921,63.147,40.676,68,34,68  c-6.247,0-7.738-4.248-8-5.232V60C26,57.794,27.794,56,30,56z M26,82V69.49c1.871,1.446,4.477,2.51,8,2.51  c5.021,0,8.179-2.158,10-4.509C45.82,69.842,48.979,72,53.999,72c5.021,0,8.18-2.158,10-4.509C65.82,69.842,68.979,72,74,72  s8.18-2.158,10.001-4.509C85.82,69.842,88.979,72,93.999,72c3.523,0,6.13-1.063,8.001-2.509V82c0,2.206-1.794,4-4,4H30  C27.794,86,26,84.206,26,82z M18,90h92c2.206,0,4,1.794,4,4v3.791c-0.256,1.115-1.788,6.209-8.399,6.209  c-6.999,0-8.309-5.715-8.432-6.354c-0.196-1.086-1.231-1.811-2.323-1.614c-0.835,0.15-1.451,0.801-1.604,1.587  c-0.002,0.011-0.008,0.017-0.01,0.027C93.186,97.905,92.005,104,84.8,104c-6.998,0-8.308-5.715-8.431-6.354  c-0.003-0.017-0.008-0.024-0.012-0.04c-0.015-0.073-0.038-0.144-0.062-0.215c-0.009-0.024-0.017-0.059-0.026-0.08  c-0.238-0.643-0.792-1.148-1.515-1.279c-1.093-0.196-2.127,0.528-2.323,1.614C72.386,97.905,71.205,104,64,104  c-6.999,0-8.308-5.716-8.432-6.354c-0.196-1.087-1.235-1.806-2.323-1.614c-0.832,0.15-1.447,0.796-1.603,1.578  c-0.002,0.009-0.006,0.014-0.008,0.023C51.507,98.284,50.198,104,43.199,104c-6.997,0-8.307-5.716-8.431-6.354  c-0.002-0.013-0.008-0.02-0.01-0.032c-0.155-0.777-0.764-1.418-1.592-1.572c-1.078-0.205-2.123,0.513-2.332,1.592  C30.708,98.284,29.398,104,22.4,104c-6.635,0-8.154-5.131-8.4-6.208V94C14,91.794,15.794,90,18,90z M110,124H18  c-2.206,0-4-1.794-4-4v-14.912c1.942,1.671,4.673,2.912,8.4,2.912c5.249,0,8.529-2.458,10.4-5.117  c1.871,2.659,5.151,5.117,10.399,5.117c5.249,0,8.529-2.458,10.4-5.117C55.47,105.542,58.751,108,64,108s8.529-2.458,10.4-5.117  C76.271,105.542,79.551,108,84.8,108s8.529-2.458,10.4-5.117c1.871,2.659,5.151,5.117,10.4,5.117c3.727,0,6.457-1.241,8.399-2.911  V120C114,122.206,112.206,124,110,124z"/></svg>